  0
SECTION
  2
HEADER
  9
$ACADVER
  1
AC1018
  9
$ACADMAINTVER
 70
     0
  9
$DWGCODEPAGE
  3
ANSI_932
  9
$INSBASE
 10
0.0
 20
0.0
 30
0.0
  9
$EXTMIN
 10
1.000000000000000E+20
 20
1.000000000000000E+20
 30
1.000000000000000E+20
  9
$EXTMAX
 10
-1.000000000000000E+20
 20
-1.000000000000000E+20
 30
-1.000000000000000E+20
  9
$LIMMIN
 10
0.0
 20
0.0
  9
$LIMMAX
 10
12.0
 20
9.0
  9
$ORTHOMODE
 70
     0
  9
$REGENMODE
 70
     1
  9
$FILLMODE
 70
     1
  9
$QTEXTMODE
 70
     0
  9
$MIRRTEXT
 70
     1
  9
$LTSCALE
 40
1.0
  9
$ATTMODE
 70
     1
  9
$TEXTSIZE
 40
0.2
  9
$TRACEWID
 40
0.05
  9
$TEXTSTYLE
  7
Standard
  9
$CLAYER
  8
0
  9
$CELTYPE
  6
ByLayer
  9
$CECOLOR
 62
   256
  9
$CELTSCALE
 40
1.0
  9
$DISPSILH
 70
     0
  9
$DIMSCALE
 40
1.0
  9
$DIMASZ
 40
0.18
  9
$DIMEXO
 40
0.0625
  9
$DIMDLI
 40
0.38
  9
$DIMRND
 40
0.0
  9
$DIMDLE
 40
0.0
  9
$DIMEXE
 40
0.18
  9
$DIMTP
 40
0.0
  9
$DIMTM
 40
0.0
  9
$DIMTXT
 40
0.18
  9
$DIMCEN
 40
0.09
  9
$DIMTSZ
 40
0.0
  9
$DIMTOL
 70
     0
  9
$DIMLIM
 70
     0
  9
$DIMTIH
 70
     1
  9
$DIMTOH
 70
     1
  9
$DIMSE1
 70
     0
  9
$DIMSE2
 70
     0
  9
$DIMTAD
 70
     0
  9
$DIMZIN
 70
     0
  9
$DIMBLK
  1

  9
$DIMASO
 70
     1
  9
$DIMSHO
 70
     1
  9
$DIMPOST
  1

  9
$DIMAPOST
  1

  9
$DIMALT
 70
     0
  9
$DIMALTD
 70
     2
  9
$DIMALTF
 40
25.4
  9
$DIMLFAC
 40
1.0
  9
$DIMTOFL
 70
     0
  9
$DIMTVP
 40
0.0
  9
$DIMTIX
 70
     0
  9
$DIMSOXD
 70
     0
  9
$DIMSAH
 70
     0
  9
$DIMBLK1
  1

  9
$DIMBLK2
  1

  9
$DIMSTYLE
  2
Standard
  9
$DIMCLRD
 70
     0
  9
$DIMCLRE
 70
     0
  9
$DIMCLRT
 70
     0
  9
$DIMTFAC
 40
1.0
  9
$DIMGAP
 40
0.09
  9
$DIMJUST
 70
     0
  9
$DIMSD1
 70
     0
  9
$DIMSD2
 70
     0
  9
$DIMTOLJ
 70
     1
  9
$DIMTZIN
 70
     0
  9
$DIMALTZ
 70
     0
  9
$DIMALTTZ
 70
     0
  9
$DIMUPT
 70
     0
  9
$DIMDEC
 70
     4
  9
$DIMTDEC
 70
     4
  9
$DIMALTU
 70
     2
  9
$DIMALTTD
 70
     2
  9
$DIMTXSTY
  7
Standard
  9
$DIMAUNIT
 70
     0
  9
$DIMADEC
 70
     0
  9
$DIMALTRND
 40
0.0
  9
$DIMAZIN
 70
     0
  9
$DIMDSEP
 70
    46
  9
$DIMATFIT
 70
     3
  9
$DIMFRAC
 70
     0
  9
$DIMLDRBLK
  1

  9
$DIMLUNIT
 70
     2
  9
$DIMLWD
 70
    -2
  9
$DIMLWE
 70
    -2
  9
$DIMTMOVE
 70
     0
  9
$LUNITS
 70
     2
  9
$LUPREC
 70
     4
  9
$SKETCHINC
 40
0.1
  9
$FILLETRAD
 40
0.5
  9
$AUNITS
 70
     0
  9
$AUPREC
 70
     0
  9
$MENU
  1
.
  9
$ELEVATION
 40
0.0
  9
$PELEVATION
 40
0.0
  9
$THICKNESS
 40
0.0
  9
$LIMCHECK
 70
     0
  9
$CHAMFERA
 40
0.5
  9
$CHAMFERB
 40
0.5
  9
$CHAMFERC
 40
1.0
  9
$CHAMFERD
 40
0.0
  9
$SKPOLY
 70
     0
  9
$TDCREATE
 40
2458719.775335648
  9
$TDUCREATE
 40
2458720.025335648
  9
$TDUPDATE
 40
2458719.77533566
  9
$TDUUPDATE
 40
2458720.02533566
  9
$TDINDWG
 40
0.0000000116
  9
$TDUSRTIMER
 40
0.0000000116
  9
$USRTIMER
 70
     1
  9
$ANGBASE
 50
0.0
  9
$ANGDIR
 70
     0
  9
$PDMODE
 70
     0
  9
$PDSIZE
 40
0.0
  9
$PLINEWID
 40
0.0
  9
$SPLFRAME
 70
     0
  9
$SPLINETYPE
 70
     6
  9
$SPLINESEGS
 70
     8
  9
$HANDSEED
  5
A3
  9
$SURFTAB1
 70
     6
  9
$SURFTAB2
 70
     6
  9
$SURFTYPE
 70
     6
  9
$SURFU
 70
     6
  9
$SURFV
 70
     6
  9
$UCSBASE
  2

  9
$UCSNAME
  2

  9
$UCSORG
 10
0.0
 20
0.0
 30
0.0
  9
$UCSXDIR
 10
1.0
 20
0.0
 30
0.0
  9
$UCSYDIR
 10
0.0
 20
1.0
 30
0.0
  9
$UCSORTHOREF
  2

  9
$UCSORTHOVIEW
 70
     0
  9
$UCSORGTOP
 10
0.0
 20
0.0
 30
0.0
  9
$UCSORGBOTTOM
 10
0.0
 20
0.0
 30
0.0
  9
$UCSORGLEFT
 10
0.0
 20
0.0
 30
0.0
  9
$UCSORGRIGHT
 10
0.0
 20
0.0
 30
0.0
  9
$UCSORGFRONT
 10
0.0
 20
0.0
 30
0.0
  9
$UCSORGBACK
 10
0.0
 20
0.0
 30
0.0
  9
$PUCSBASE
  2

  9
$PUCSNAME
  2

  9
$PUCSORG
 10
0.0
 20
0.0
 30
0.0
  9
$PUCSXDIR
 10
1.0
 20
0.0
 30
0.0
  9
$PUCSYDIR
 10
0.0
 20
1.0
 30
0.0
  9
$PUCSORTHOREF
  2

  9
$PUCSORTHOVIEW
 70
     0
  9
$PUCSORGTOP
 10
0.0
 20
0.0
 30
0.0
  9
$PUCSORGBOTTOM
 10
0.0
 20
0.0
 30
0.0
  9
$PUCSORGLEFT
 10
0.0
 20
0.0
 30
0.0
  9
$PUCSORGRIGHT
 10
0.0
 20
0.0
 30
0.0
  9
$PUCSORGFRONT
 10
0.0
 20
0.0
 30
0.0
  9
$PUCSORGBACK
 10
0.0
 20
0.0
 30
0.0
  9
$USERI1
 70
     0
  9
$USERI2
 70
     0
  9
$USERI3
 70
     0
  9
$USERI4
 70
     0
  9
$USERI5
 70
     0
  9
$USERR1
 40
0.0
  9
$USERR2
 40
0.0
  9
$USERR3
 40
0.0
  9
$USERR4
 40
0.0
  9
$USERR5
 40
0.0
  9
$WORLDVIEW
 70
     1
  9
$SHADEDGE
 70
     3
  9
$SHADEDIF
 70
    70
  9
$TILEMODE
 70
     1
  9
$MAXACTVP
 70
    64
  9
$PINSBASE
 10
0.0
 20
0.0
 30
0.0
  9
$PLIMCHECK
 70
     0
  9
$PEXTMIN
 10
1.000000000000000E+20
 20
1.000000000000000E+20
 30
1.000000000000000E+20
  9
$PEXTMAX
 10
-1.000000000000000E+20
 20
-1.000000000000000E+20
 30
-1.000000000000000E+20
  9
$PLIMMIN
 10
0.0
 20
0.0
  9
$PLIMMAX
 10
12.0
 20
9.0
  9
$UNITMODE
 70
     0
  9
$VISRETAIN
 70
     1
  9
$PLINEGEN
 70
     0
  9
$PSLTSCALE
 70
     1
  9
$TREEDEPTH
 70
  3020
  9
$CMLSTYLE
  2
Standard
  9
$CMLJUST
 70
     0
  9
$CMLSCALE
 40
1.0
  9
$PROXYGRAPHICS
 70
     1
  9
$MEASUREMENT
 70
     0
  9
$CELWEIGHT
370
    -1
  9
$ENDCAPS
280
     0
  9
$JOINSTYLE
280
     0
  9
$LWDISPLAY
290
     1
  9
$INSUNITS
 70
     1
  9
$HYPERLINKBASE
  1

  9
$STYLESHEET
  1

  9
$XEDIT
290
     1
  9
$CEPSNTYPE
380
     0
  9
$PSTYLEMODE
290
     1
  9
$FINGERPRINTGUID
  2
{4415C078-A2E1-59D4-EBF4-477E102A6DA7}
  9
$VERSIONGUID
  2
{FAEB1C32-E019-11D5-929B-00C0DF256EC4}
  9
$EXTNAMES
290
     1
  9
$PSVPSCALE
 40
0.0
  9
$OLESTARTUP
290
     0
  9
$SORTENTS
280
   127
  9
$INDEXCTL
280
     0
  9
$HIDETEXT
280
     1
  9
$XCLIPFRAME
290
     0
  9
$HALOGAP
280
     0
  9
$OBSCOLOR
 70
   257
  9
$OBSLTYPE
280
     0
  9
$INTERSECTIONDISPLAY
280
     0
  9
$INTERSECTIONCOLOR
 70
   257
  9
$DIMASSOC
280
     2
  9
$PROJECTNAME
  1

  0
ENDSEC
  0
SECTION
  2
CLASSES
  0
CLASS
  1
ACDBDICTIONARYWDFLT
  2
AcDbDictionaryWithDefault
  3
ObjectDBX Classes
 90
        0
 91
        3
280
     0
281
     0
  0
CLASS
  1
VISUALSTYLE
  2
AcDbVisualStyle
  3
ObjectDBX Classes
 90
     4095
 91
        3
280
     0
281
     0
  0
ENDSEC
  0
SECTION
  2
TABLES
  0
TABLE
  2
VPORT
  5
8
330
0
100
AcDbSymbolTable
 70
     1
  0
VPORT
  5
29
330
8
100
AcDbSymbolTableRecord
100
AcDbViewportTableRecord
  2
*Active
 70
     0
 10
0.0
 20
0.0
 11
1.0
 21
1.0
 12
0.0
 22
0.0
 13
0.0
 23
0.0
 14
0.5
 24
0.5
 15
0.5
 25
0.5
 16
0.0
 26
0.0
 36
1.0
 17
228.59999994285
 27
-304.7999999238
 37
0.0
 40
609.5999998476
 41
0.7500000000000001
 42
50.0
 43
0.0
 44
0.0
 50
0.0
 51
0.0
 71
     0
 72
   100
 73
     1
 74
     3
 75
     0
 76
     0
 77
     0
 78
     0
281
     0
 65
     1
110
0.0
120
0.0
130
0.0
111
1.0
121
0.0
131
0.0
112
0.0
122
1.0
132
0.0
 79
     0
146
0.0
  0
ENDTAB
  0
TABLE
  2
LTYPE
  5
5
330
0
100
AcDbSymbolTable
 70
     1
  0
LTYPE
  5
14
330
5
100
AcDbSymbolTableRecord
100
AcDbLinetypeTableRecord
  2
ByBlock
 70
     0
  3

 72
    65
 73
     0
 40
0.0
  0
LTYPE
  5
15
330
5
100
AcDbSymbolTableRecord
100
AcDbLinetypeTableRecord
  2
ByLayer
 70
     0
  3

 72
    65
 73
     0
 40
0.0
  0
LTYPE
  5
16
330
5
100
AcDbSymbolTableRecord
100
AcDbLinetypeTableRecord
  2
Continuous
 70
     0
  3
Solid line
 72
    65
 73
     0
 40
0.0
  0
ENDTAB
  0
TABLE
  2
LAYER
  5
2
330
0
100
AcDbSymbolTable
 70
     3
  0
LAYER
  5
10
330
2
100
AcDbSymbolTableRecord
100
AcDbLayerTableRecord
  2
0
 70
     0
 62
     7
  6
Continuous
370
    -3
390
F
  0
LAYER
  5
3B
330
2
100
AcDbSymbolTableRecord
100
AcDbLayerTableRecord
  2
bottom
 70
     0
 62
     7
  6
Continuous
370
    -3
390
F
  0
LAYER
  5
70
330
2
100
AcDbSymbolTableRecord
100
AcDbLayerTableRecord
  2
3 encoder top
 70
     0
 62
     7
  6
Continuous
370
    -3
390
F
  0
ENDTAB
  0
TABLE
  2
STYLE
  5
3
330
0
100
AcDbSymbolTable
 70
     1
  0
STYLE
  5
11
330
3
100
AcDbSymbolTableRecord
100
AcDbTextStyleTableRecord
  2
Standard
 70
     0
 40
0.0
 41
1.0
 50
0.0
 71
     0
 42
0.2
  3
txt
  4

  0
ENDTAB
  0
TABLE
  2
VIEW
  5
6
330
0
100
AcDbSymbolTable
 70
     0
  0
ENDTAB
  0
TABLE
  2
UCS
  5
7
330
0
100
AcDbSymbolTable
 70
     0
  0
ENDTAB
  0
TABLE
  2
APPID
  5
9
330
0
100
AcDbSymbolTable
 70
     1
  0
APPID
  5
12
330
9
100
AcDbSymbolTableRecord
100
AcDbRegAppTableRecord
  2
ACAD
 70
     0
  0
ENDTAB
  0
TABLE
  2
DIMSTYLE
  5
A
330
0
100
AcDbSymbolTable
 70
     1
100
AcDbDimStyleTable
  0
DIMSTYLE
105
27
330
A
100
AcDbSymbolTableRecord
100
AcDbDimStyleTableRecord
  2
Standard
 70
     0
340
11
  0
ENDTAB
  0
TABLE
  2
BLOCK_RECORD
  5
1
330
0
100
AcDbSymbolTable
 70
    18
  0
BLOCK_RECORD
  5
1F
330
1
100
AcDbSymbolTableRecord
100
AcDbBlockTableRecord
  2
*Model_Space
340
22
  0
BLOCK_RECORD
  5
1B
330
1
100
AcDbSymbolTableRecord
100
AcDbBlockTableRecord
  2
*Paper_Space
340
1E
  0
BLOCK_RECORD
  5
23
330
1
100
AcDbSymbolTableRecord
100
AcDbBlockTableRecord
  2
*Paper_Space0
340
26
  0
BLOCK_RECORD
  5
3C
330
1
100
AcDbSymbolTableRecord
100
AcDbBlockTableRecord
  2
block 2
340
0
102
{BLKREFS
331
3D
102
}
  0
BLOCK_RECORD
  5
40
330
1
100
AcDbSymbolTableRecord
100
AcDbBlockTableRecord
  2
block 3
340
0
102
{BLKREFS
331
41
102
}
  0
BLOCK_RECORD
  5
45
330
1
100
AcDbSymbolTableRecord
100
AcDbBlockTableRecord
  2
block 4
340
0
102
{BLKREFS
331
46
102
}
  0
BLOCK_RECORD
  5
4A
330
1
100
AcDbSymbolTableRecord
100
AcDbBlockTableRecord
  2
block 5
340
0
102
{BLKREFS
331
4B
102
}
  0
BLOCK_RECORD
  5
4F
330
1
100
AcDbSymbolTableRecord
100
AcDbBlockTableRecord
  2
block 6
340
0
102
{BLKREFS
331
50
102
}
  0
BLOCK_RECORD
  5
54
330
1
100
AcDbSymbolTableRecord
100
AcDbBlockTableRecord
  2
block 7
340
0
102
{BLKREFS
331
55
102
}
  0
BLOCK_RECORD
  5
59
330
1
100
AcDbSymbolTableRecord
100
AcDbBlockTableRecord
  2
block 8
340
0
102
{BLKREFS
331
5A
102
}
  0
BLOCK_RECORD
  5
5E
330
1
100
AcDbSymbolTableRecord
100
AcDbBlockTableRecord
  2
block 9
340
0
102
{BLKREFS
331
5F
102
}
  0
BLOCK_RECORD
  5
63
330
1
100
AcDbSymbolTableRecord
100
AcDbBlockTableRecord
  2
block 10
340
0
102
{BLKREFS
331
64
102
}
  0
BLOCK_RECORD
  5
68
330
1
100
AcDbSymbolTableRecord
100
AcDbBlockTableRecord
  2
block 11
340
0
102
{BLKREFS
331
69
102
}
  0
BLOCK_RECORD
  5
7C
330
1
100
AcDbSymbolTableRecord
100
AcDbBlockTableRecord
  2
block 12
340
0
102
{BLKREFS
331
7D
102
}
  0
BLOCK_RECORD
  5
81
330
1
100
AcDbSymbolTableRecord
100
AcDbBlockTableRecord
  2
block 13
340
0
102
{BLKREFS
331
82
102
}
  0
BLOCK_RECORD
  5
86
330
1
100
AcDbSymbolTableRecord
100
AcDbBlockTableRecord
  2
block 14
340
0
102
{BLKREFS
331
87
102
}
  0
BLOCK_RECORD
  5
8B
330
1
100
AcDbSymbolTableRecord
100
AcDbBlockTableRecord
  2
block 15
340
0
102
{BLKREFS
331
8C
102
}
  0
BLOCK_RECORD
  5
90
330
1
100
AcDbSymbolTableRecord
100
AcDbBlockTableRecord
  2
block 16
340
0
102
{BLKREFS
331
91
102
}
  0
BLOCK_RECORD
  5
95
330
1
100
AcDbSymbolTableRecord
100
AcDbBlockTableRecord
  2
block 17
340
0
102
{BLKREFS
331
96
102
}
  0
BLOCK_RECORD
  5
9D
330
1
100
AcDbSymbolTableRecord
100
AcDbBlockTableRecord
  2
block 18
340
0
102
{BLKREFS
331
9E
102
}
  0
ENDTAB
  0
ENDSEC
  0
SECTION
  2
BLOCKS
  0
BLOCK
  5
20
330
1F
100
AcDbEntity
  8
0
100
AcDbBlockBegin
  2
*Model_Space
 70
     0
 71
     0
 10
0.0
 20
0.0
 30
0.0
  3
*Model_Space
  1

  0
ENDBLK
  5
21
330
1F
100
AcDbEntity
  8
0
100
AcDbBlockEnd
  0
BLOCK
  5
1C
330
1B
100
AcDbEntity
 67
     1
  8
0
100
AcDbBlockBegin
  2
*Paper_Space
 70
     0
 71
     0
 10
0.0
 20
0.0
 30
0.0
  3
*Paper_Space
  1

  0
ENDBLK
  5
1D
330
1B
100
AcDbEntity
 67
     1
  8
0
100
AcDbBlockEnd
  0
BLOCK
  5
24
330
23
100
AcDbEntity
  8
0
100
AcDbBlockBegin
  2
*Paper_Space0
 70
     0
 71
     0
 10
0.0
 20
0.0
 30
0.0
  3
*Paper_Space0
  1

  0
ENDBLK
  5
25
330
23
100
AcDbEntity
  8
0
100
AcDbBlockEnd
  0
BLOCK
  5
3E
330
3C
100
AcDbEntity
  8
0
100
AcDbBlockBegin
  2
block 2
 70
     0
 71
     0
 10
0.0
 20
0.0
 30
0.0
  3
block 2
  1

  0
INSERT
  5
41
330
3C
100
AcDbEntity
  8
bottom
100
AcDbBlockReference
  2
block 3
 10
0.0
 20
0.0
 30
0.0
  0
INSERT
  5
46
330
3C
100
AcDbEntity
  8
bottom
100
AcDbBlockReference
  2
block 4
 10
0.0
 20
0.0
 30
0.0
  0
INSERT
  5
4B
330
3C
100
AcDbEntity
  8
bottom
100
AcDbBlockReference
  2
block 5
 10
0.0
 20
0.0
 30
0.0
  0
INSERT
  5
50
330
3C
100
AcDbEntity
  8
bottom
100
AcDbBlockReference
  2
block 6
 10
0.0
 20
0.0
 30
0.0
  0
INSERT
  5
55
330
3C
100
AcDbEntity
  8
bottom
100
AcDbBlockReference
  2
block 7
 10
0.0
 20
0.0
 30
0.0
  0
INSERT
  5
5A
330
3C
100
AcDbEntity
  8
bottom
100
AcDbBlockReference
  2
block 8
 10
0.0
 20
0.0
 30
0.0
  0
INSERT
  5
5F
330
3C
100
AcDbEntity
  8
bottom
100
AcDbBlockReference
  2
block 9
 10
0.0
 20
0.0
 30
0.0
  0
INSERT
  5
64
330
3C
100
AcDbEntity
  8
bottom
100
AcDbBlockReference
  2
block 10
 10
0.0
 20
0.0
 30
0.0
  0
INSERT
  5
69
330
3C
100
AcDbEntity
  8
bottom
100
AcDbBlockReference
  2
block 11
 10
0.0
 20
0.0
 30
0.0
  0
ENDBLK
  5
3F
330
3C
100
AcDbEntity
  8
0
100
AcDbBlockEnd
  0
BLOCK
  5
42
330
40
100
AcDbEntity
  8
0
100
AcDbBlockBegin
  2
block 3
 70
     0
 71
     0
 10
0.0
 20
0.0
 30
0.0
  3
block 3
  1

  0
SPLINE
  5
44
330
40
100
AcDbEntity
  8
bottom
 62
     1
370
     9
100
AcDbSpline
210
0.0
220
0.0
230
1.0
 70
    11
 71
     3
 72
    20
 73
    16
 74
     0
 42
0.0000000001
 43
0.0000000001
 40
0.0
 40
0.0
 40
0.0
 40
0.0
 40
1.0
 40
1.0
 40
1.0
 40
2.0
 40
2.0
 40
2.0
 40
3.0
 40
3.0
 40
3.0
 40
4.0
 40
4.0
 40
4.0
 40
5.0
 40
5.0
 40
5.0
 40
5.0
 10
164.2413099090265
 20
-310.9477728172283
 30
0.0
 10
164.2413099090265
 20
-310.1192273530257
 30
0.0
 10
163.5700330537256
 20
-309.4477782429506
 30
0.0
 10
162.7413153347487
 20
-309.4477782429506
 30
0.0
 10
161.9129421253204
 20
-309.4477782429506
 30
0.0
 10
161.2413207604709
 20
-310.1192273530257
 30
0.0
 10
161.2413207604709
 20
-310.9477728172283
 30
0.0
 10
161.2413207604709
 20
-311.7763182814309
 30
0.0
 10
161.9129421253204
 20
-312.4477673915061
 30
0.0
 10
162.7413153347487
 20
-312.4477673915061
 30
0.0
 10
163.5700330537256
 20
-312.4477673915061
 30
0.0
 10
164.2413099090265
 20
-311.7763182814309
 30
0.0
 10
164.2413099090265
 20
-310.9477728172283
 30
0.0
 10
164.2413099090265
 20
-310.9477728172283
 30
0.0
 10
164.2413099090265
 20
-310.9477728172283
 30
0.0
 10
164.2413099090265
 20
-310.9477728172283
 30
0.0
  0
ENDBLK
  5
43
330
40
100
AcDbEntity
  8
0
100
AcDbBlockEnd
  0
BLOCK
  5
47
330
45
100
AcDbEntity
  8
0
100
AcDbBlockBegin
  2
block 4
 70
     0
 71
     0
 10
0.0
 20
0.0
 30
0.0
  3
block 4
  1

  0
SPLINE
  5
49
330
45
100
AcDbEntity
  8
bottom
 62
     1
370
     9
100
AcDbSpline
210
0.0
220
0.0
230
1.0
 70
    11
 71
     3
 72
    20
 73
    16
 74
     0
 42
0.0000000001
 43
0.0000000001
 40
0.0
 40
0.0
 40
0.0
 40
0.0
 40
1.0
 40
1.0
 40
1.0
 40
2.0
 40
2.0
 40
2.0
 40
3.0
 40
3.0
 40
3.0
 40
4.0
 40
4.0
 40
4.0
 40
5.0
 40
5.0
 40
5.0
 40
5.0
 10
164.2752440995562
 20
-389.2093179365518
 30
0.0
 10
164.2752440995562
 20
-388.3814614914463
 30
0.0
 10
163.6032782251582
 20
-387.7093233622741
 30
0.0
 10
162.7752495252784
 20
-387.7093233622741
 30
0.0
 10
161.9472208253986
 20
-387.7093233622741
 30
0.0
 10
161.2752549510006
 20
-388.3814614914463
 30
0.0
 10
161.2752549510006
 20
-389.2093179365518
 30
0.0
 10
161.2752549510006
 20
-390.0378634007544
 30
0.0
 10
161.9472208253986
 20
-390.7093125108296
 30
0.0
 10
162.7752495252784
 20
-390.7093125108296
 30
0.0
 10
163.6032782251582
 20
-390.7093125108296
 30
0.0
 10
164.2752440995562
 20
-390.0378634007544
 30
0.0
 10
164.2752440995562
 20
-389.2093179365518
 30
0.0
 10
164.2752440995562
 20
-389.2093179365518
 30
0.0
 10
164.2752440995562
 20
-389.2093179365518
 30
0.0
 10
164.2752440995562
 20
-389.2093179365518
 30
0.0
  0
ENDBLK
  5
48
330
45
100
AcDbEntity
  8
0
100
AcDbBlockEnd
  0
BLOCK
  5
4C
330
4A
100
AcDbEntity
  8
0
100
AcDbBlockBegin
  2
block 5
 70
     0
 71
     0
 10
0.0
 20
0.0
 30
0.0
  3
block 5
  1

  0
SPLINE
  5
4E
330
4A
100
AcDbEntity
  8
bottom
 62
     1
370
     9
100
AcDbSpline
210
0.0
220
0.0
230
1.0
 70
    11
 71
     3
 72
    20
 73
    16
 74
     0
 42
0.0000000001
 43
0.0000000001
 40
0.0
 40
0.0
 40
0.0
 40
0.0
 40
1.0
 40
1.0
 40
1.0
 40
2.0
 40
2.0
 40
2.0
 40
3.0
 40
3.0
 40
3.0
 40
4.0
 40
4.0
 40
4.0
 40
5.0
 40
5.0
 40
5.0
 40
5.0
 10
290.3305988857507
 20
-331.2138915187591
 30
0.0
 10
290.3305988857507
 20
-330.3853460545565
 30
0.0
 10
289.6584607565784
 20
-329.7135524349328
 30
0.0
 10
288.8302598019244
 20
-329.7135524349328
 30
0.0
 10
288.0020588472703
 20
-329.7135524349328
 30
0.0
 10
287.3306097371951
 20
-330.3853460545565
 30
0.0
 10
287.3306097371951
 20
-331.2138915187591
 30
0.0
 10
287.3306097371951
 20
-332.0424369829616
 30
0.0
 10
288.0020588472703
 20
-332.7142306025854
 30
0.0
 10
288.8302598019244
 20
-332.7142306025854
 30
0.0
 10
289.6584607565784
 20
-332.7142306025854
 30
0.0
 10
290.3305988857507
 20
-332.0424369829616
 30
0.0
 10
290.3305988857507
 20
-331.2138915187591
 30
0.0
 10
290.3305988857507
 20
-331.2138915187591
 30
0.0
 10
290.3305988857507
 20
-331.2138915187591
 30
0.0
 10
290.3305988857507
 20
-331.2138915187591
 30
0.0
  0
ENDBLK
  5
4D
330
4A
100
AcDbEntity
  8
0
100
AcDbBlockEnd
  0
BLOCK
  5
51
330
4F
100
AcDbEntity
  8
0
100
AcDbBlockBegin
  2
block 6
 70
     0
 71
     0
 10
0.0
 20
0.0
 30
0.0
  3
block 6
  1

  0
SPLINE
  5
53
330
4F
100
AcDbEntity
  8
bottom
 62
     1
370
     9
100
AcDbSpline
210
0.0
220
0.0
230
1.0
 70
    11
 71
     3
 72
    20
 73
    16
 74
     0
 42
0.0000000001
 43
0.0000000001
 40
0.0
 40
0.0
 40
0.0
 40
0.0
 40
1.0
 40
1.0
 40
1.0
 40
2.0
 40
2.0
 40
2.0
 40
3.0
 40
3.0
 40
3.0
 40
4.0
 40
4.0
 40
4.0
 40
5.0
 40
5.0
 40
5.0
 40
5.0
 10
290.3309433952992
 20
-389.2069063697122
 30
0.0
 10
290.3309433952992
 20
-388.3780163959611
 30
0.0
 10
289.6591497756755
 20
-387.7069117954344
 30
0.0
 10
288.8309488210214
 20
-387.7069117954344
 30
0.0
 10
288.0024033568188
 20
-387.7069117954344
 30
0.0
 10
287.3309542467437
 20
-388.3780163959611
 30
0.0
 10
287.3309542467437
 20
-389.2069063697122
 30
0.0
 10
287.3309542467437
 20
-390.0351073243663
 30
0.0
 10
288.0024033568188
 20
-390.70690094399
 30
0.0
 10
288.8309488210214
 20
-390.70690094399
 30
0.0
 10
289.6591497756755
 20
-390.70690094399
 30
0.0
 10
290.3309433952992
 20
-390.0351073243663
 30
0.0
 10
290.3309433952992
 20
-389.2069063697122
 30
0.0
 10
290.3309433952992
 20
-389.2069063697122
 30
0.0
 10
290.3309433952992
 20
-389.2069063697122
 30
0.0
 10
290.3309433952992
 20
-389.2069063697122
 30
0.0
  0
ENDBLK
  5
52
330
4F
100
AcDbEntity
  8
0
100
AcDbBlockEnd
  0
BLOCK
  5
56
330
54
100
AcDbEntity
  8
0
100
AcDbBlockBegin
  2
block 7
 70
     0
 71
     0
 10
0.0
 20
0.0
 30
0.0
  3
block 7
  1

  0
SPLINE
  5
58
330
54
100
AcDbEntity
  8
bottom
 62
     1
370
     9
100
AcDbSpline
210
0.0
220
0.0
230
1.0
 70
    11
 71
     3
 72
    20
 73
    16
 74
     0
 42
0.0000000001
 43
0.0000000001
 40
0.0
 40
0.0
 40
0.0
 40
0.0
 40
1.0
 40
1.0
 40
1.0
 40
2.0
 40
2.0
 40
2.0
 40
3.0
 40
3.0
 40
3.0
 40
4.0
 40
4.0
 40
4.0
 40
5.0
 40
5.0
 40
5.0
 40
5.0
 10
164.1431246876969
 20
-346.8022595704175
 30
0.0
 10
164.1431246876969
 20
-345.974403125312
 30
0.0
 10
163.4711588132989
 20
-345.3022649961397
 30
0.0
 10
162.6431301134191
 20
-345.3022649961397
 30
0.0
 10
161.8151014135393
 20
-345.3022649961397
 30
0.0
 10
161.1431355391413
 20
-345.974403125312
 30
0.0
 10
161.1431355391413
 20
-346.8022595704175
 30
0.0
 10
161.1431355391413
 20
-347.6308050346201
 30
0.0
 10
161.8151014135393
 20
-348.3022541446953
 30
0.0
 10
162.6431301134191
 20
-348.3022541446953
 30
0.0
 10
163.4711588132989
 20
-348.3022541446953
 30
0.0
 10
164.1431246876969
 20
-347.6308050346201
 30
0.0
 10
164.1431246876969
 20
-346.8022595704175
 30
0.0
 10
164.1431246876969
 20
-346.8022595704175
 30
0.0
 10
164.1431246876969
 20
-346.8022595704175
 30
0.0
 10
164.1431246876969
 20
-346.8022595704175
 30
0.0
  0
ENDBLK
  5
57
330
54
100
AcDbEntity
  8
0
100
AcDbBlockEnd
  0
BLOCK
  5
5B
330
59
100
AcDbEntity
  8
0
100
AcDbBlockBegin
  2
block 8
 70
     0
 71
     0
 10
0.0
 20
0.0
 30
0.0
  3
block 8
  1

  0
SPLINE
  5
5D
330
59
100
AcDbEntity
  8
bottom
 62
     1
370
     9
100
AcDbSpline
210
0.0
220
0.0
230
1.0
 70
    11
 71
     3
 72
    20
 73
    16
 74
     0
 42
0.0000000001
 43
0.0000000001
 40
0.0
 40
0.0
 40
0.0
 40
0.0
 40
1.0
 40
1.0
 40
1.0
 40
2.0
 40
2.0
 40
2.0
 40
3.0
 40
3.0
 40
3.0
 40
4.0
 40
4.0
 40
4.0
 40
5.0
 40
5.0
 40
5.0
 40
5.0
 10
241.3571885247302
 20
-389.2093179365518
 30
0.0
 10
241.3571885247302
 20
-388.3814614914463
 30
0.0
 10
240.6850503955579
 20
-387.7093233622741
 30
0.0
 10
239.8571939504524
 20
-387.7093233622741
 30
0.0
 10
239.0293375053468
 20
-387.7093233622741
 30
0.0
 10
238.3571993761746
 20
-388.3814614914463
 30
0.0
 10
238.3571993761746
 20
-389.2093179365518
 30
0.0
 10
238.3571993761746
 20
-390.0378634007544
 30
0.0
 10
239.0293375053468
 20
-390.7093125108296
 30
0.0
 10
239.8571939504524
 20
-390.7093125108296
 30
0.0
 10
240.6850503955579
 20
-390.7093125108296
 30
0.0
 10
241.3571885247302
 20
-390.0378634007544
 30
0.0
 10
241.3571885247302
 20
-389.2093179365518
 30
0.0
 10
241.3571885247302
 20
-389.2093179365518
 30
0.0
 10
241.3571885247302
 20
-389.2093179365518
 30
0.0
 10
241.3571885247302
 20
-389.2093179365518
 30
0.0
  0
ENDBLK
  5
5C
330
59
100
AcDbEntity
  8
0
100
AcDbBlockEnd
  0
BLOCK
  5
60
330
5E
100
AcDbEntity
  8
0
100
AcDbBlockBegin
  2
block 9
 70
     0
 71
     0
 10
0.0
 20
0.0
 30
0.0
  3
block 9
  1

  0
SPLINE
  5
62
330
5E
100
AcDbEntity
  8
bottom
 62
     1
370
     9
100
AcDbSpline
210
0.0
220
0.0
230
1.0
 70
    11
 71
     3
 72
    20
 73
    16
 74
     0
 42
0.0000000001
 43
0.0000000001
 40
0.0
 40
0.0
 40
0.0
 40
0.0
 40
1.0
 40
1.0
 40
1.0
 40
2.0
 40
2.0
 40
2.0
 40
3.0
 40
3.0
 40
3.0
 40
4.0
 40
4.0
 40
4.0
 40
5.0
 40
5.0
 40
5.0
 40
5.0
 10
236.2153835129948
 20
-310.8926512894644
 30
0.0
 10
236.2153835129948
 20
-310.0641058252618
 30
0.0
 10
235.5442789124681
 20
-309.3926567151865
 30
0.0
 10
234.715388938717
 20
-309.3926567151865
 30
0.0
 10
233.8871879840629
 20
-309.3926567151865
 30
0.0
 10
233.2153943644392
 20
-310.0641058252618
 30
0.0
 10
233.2153943644392
 20
-310.8926512894644
 30
0.0
 10
233.2153943644392
 20
-311.721196753667
 30
0.0
 10
233.8871879840629
 20
-312.3926458637421
 30
0.0
 10
234.715388938717
 20
-312.3926458637421
 30
0.0
 10
235.5442789124681
 20
-312.3926458637421
 30
0.0
 10
236.2153835129948
 20
-311.721196753667
 30
0.0
 10
236.2153835129948
 20
-310.8926512894644
 30
0.0
 10
236.2153835129948
 20
-310.8926512894644
 30
0.0
 10
236.2153835129948
 20
-310.8926512894644
 30
0.0
 10
236.2153835129948
 20
-310.8926512894644
 30
0.0
  0
ENDBLK
  5
61
330
5E
100
AcDbEntity
  8
0
100
AcDbBlockEnd
  0
BLOCK
  5
65
330
63
100
AcDbEntity
  8
0
100
AcDbBlockBegin
  2
block 10
 70
     0
 71
     0
 10
0.0
 20
0.0
 30
0.0
  3
block 10
  1

  0
SPLINE
  5
67
330
63
100
AcDbEntity
  8
bottom
 62
     1
370
     9
100
AcDbSpline
210
0.0
220
0.0
230
1.0
 70
    11
 71
     3
 72
    20
 73
    16
 74
     0
 42
0.0000000001
 43
0.0000000001
 40
0.0
 40
0.0
 40
0.0
 40
0.0
 40
1.0
 40
1.0
 40
1.0
 40
2.0
 40
2.0
 40
2.0
 40
3.0
 40
3.0
 40
3.0
 40
4.0
 40
4.0
 40
4.0
 40
5.0
 40
5.0
 40
5.0
 40
5.0
 10
241.3385850091098
 20
-331.1697942965478
 30
0.0
 10
241.3385850091098
 20
-330.3412488323453
 30
0.0
 10
240.6664468799376
 20
-329.6694552127215
 30
0.0
 10
239.8382459252835
 20
-329.6694552127215
 30
0.0
 10
239.0100449706295
 20
-329.6694552127215
 30
0.0
 10
238.3385958605542
 20
-330.3412488323453
 30
0.0
 10
238.3385958605542
 20
-331.1697942965478
 30
0.0
 10
238.3385958605542
 20
-331.9983397607504
 30
0.0
 10
239.0100449706295
 20
-332.6701333803741
 30
0.0
 10
239.8382459252835
 20
-332.6701333803741
 30
0.0
 10
240.6664468799376
 20
-332.6701333803741
 30
0.0
 10
241.3385850091098
 20
-331.9983397607504
 30
0.0
 10
241.3385850091098
 20
-331.1697942965478
 30
0.0
 10
241.3385850091098
 20
-331.1697942965478
 30
0.0
 10
241.3385850091098
 20
-331.1697942965478
 30
0.0
 10
241.3385850091098
 20
-331.1697942965478
 30
0.0
  0
ENDBLK
  5
66
330
63
100
AcDbEntity
  8
0
100
AcDbBlockEnd
  0
BLOCK
  5
6A
330
68
100
AcDbEntity
  8
0
100
AcDbBlockBegin
  2
block 11
 70
     0
 71
     0
 10
0.0
 20
0.0
 30
0.0
  3
block 11
  1

  0
SPLINE
  5
6C
330
68
100
AcDbEntity
  8
bottom
 62
     1
370
     9
100
AcDbSpline
210
0.0
220
0.0
230
1.0
 70
     8
 71
     3
 72
    32
 73
    28
 74
     0
 42
0.0000000001
 43
0.0000000001
 40
0.0
 40
0.0
 40
0.0
 40
0.0
 40
1.0
 40
1.0
 40
1.0
 40
2.0
 40
2.0
 40
2.0
 40
3.0
 40
3.0
 40
3.0
 40
4.0
 40
4.0
 40
4.0
 40
5.0
 40
5.0
 40
5.0
 40
6.0
 40
6.0
 40
6.0
 40
7.0
 40
7.0
 40
7.0
 40
8.0
 40
8.0
 40
8.0
 40
9.0
 40
9.0
 40
9.0
 40
9.0
 10
255.5685519109343
 20
-394.9044052832184
 30
0.0
 10
255.5685519109343
 20
-394.9044052832184
 30
0.0
 10
158.4604396847773
 20
-394.8961370540538
 30
0.0
 10
158.4604396847773
 20
-394.8961370540538
 30
0.0
 10
157.6775417357542
 20
-394.8961370540538
 30
0.0
 10
157.042782892597
 20
-394.2574163510885
 30
0.0
 10
157.042782892597
 20
-393.4691785040633
 30
0.0
 10
157.042782892597
 20
-393.4691785040633
 30
0.0
 10
157.042782892597
 20
-306.3227321282804
 30
0.0
 10
157.042782892597
 20
-306.3227321282804
 30
0.0
 10
157.042782892597
 20
-305.5344942812553
 30
0.0
 10
157.6775417357542
 20
-304.8959458330642
 30
0.0
 10
158.4604396847773
 20
-304.8959458330642
 30
0.0
 10
158.4604396847773
 20
-304.8959458330642
 30
0.0
 10
293.6251436982951
 20
-304.8959458330642
 30
0.0
 10
293.6251436982951
 20
-304.8959458330642
 30
0.0
 10
294.4078693925439
 20
-304.8959458330642
 30
0.0
 10
295.0424559809269
 20
-305.5344942812553
 30
0.0
 10
295.0424559809269
 20
-306.3227321282804
 30
0.0
 10
295.0424559809269
 20
-306.3227321282804
 30
0.0
 10
295.0424559809269
 20
-393.4691785040633
 30
0.0
 10
295.0424559809269
 20
-393.4691785040633
 30
0.0
 10
295.0424559809269
 20
-394.2574163510885
 30
0.0
 10
294.4078693925439
 20
-394.8961370540538
 30
0.0
 10
293.6251436982951
 20
-394.8961370540538
 30
0.0
 10
293.6251436982951
 20
-394.8961370540538
 30
0.0
 10
273.0847953961385
 20
-394.9044052832184
 30
0.0
 10
273.0847953961385
 20
-394.9044052832184
 30
0.0
  0
SPLINE
  5
6D
330
68
100
AcDbEntity
  8
bottom
 62
     1
370
     9
100
AcDbSpline
210
0.0
220
0.0
230
1.0
 70
     8
 71
     3
 72
    20
 73
    16
 74
     0
 42
0.0000000001
 43
0.0000000001
 40
0.0
 40
0.0
 40
0.0
 40
0.0
 40
1.0
 40
1.0
 40
1.0
 40
2.0
 40
2.0
 40
2.0
 40
3.0
 40
3.0
 40
3.0
 40
4.0
 40
4.0
 40
4.0
 40
5.0
 40
5.0
 40
5.0
 40
5.0
 10
256.7867376745186
 20
-393.4798583000676
 30
0.0
 10
256.7867376745186
 20
-393.4798583000676
 30
0.0
 10
256.7832925790333
 20
-389.8370143339644
 30
0.0
 10
256.7832925790333
 20
-389.8370143339644
 30
0.0
 10
256.7832925790333
 20
-388.9629936093565
 30
0.0
 10
257.4151230910282
 20
-388.2539929584921
 30
0.0
 10
258.1944036897917
 20
-388.2539929584921
 30
0.0
 10
258.1944036897917
 20
-388.2539929584921
 30
0.0
 10
270.2398355444192
 20
-388.2539929584921
 30
0.0
 10
270.2398355444192
 20
-388.2539929584921
 30
0.0
 10
271.0191161431827
 20
-388.2539929584921
 30
0.0
 10
271.6509466551776
 20
-388.9629936093565
 30
0.0
 10
271.6509466551776
 20
-389.8370143339644
 30
0.0
 10
271.6509466551776
 20
-389.8370143339644
 30
0.0
 10
271.6509466551776
 20
-393.5294676750552
 30
0.0
 10
271.6509466551776
 20
-393.5294676750552
 30
0.0
  0
SPLINE
  5
6E
330
68
100
AcDbEntity
  8
bottom
 62
     1
370
     9
100
AcDbSpline
210
0.0
220
0.0
230
1.0
 70
     8
 71
     3
 72
     8
 73
     4
 74
     0
 42
0.0000000001
 43
0.0000000001
 40
0.0
 40
0.0
 40
0.0
 40
0.0
 40
1.0
 40
1.0
 40
1.0
 40
1.0
 10
256.7867376745186
 20
-393.4853704528439
 30
0.0
 10
256.7867376745186
 20
-394.2646510516075
 30
0.0
 10
256.1549071625238
 20
-394.8964815636023
 30
0.0
 10
255.3756265637603
 20
-394.8964815636023
 30
0.0
  0
SPLINE
  5
6F
330
68
100
AcDbEntity
  8
bottom
 62
     1
370
     9
100
AcDbSpline
210
0.0
220
0.0
230
1.0
 70
     8
 71
     3
 72
     8
 73
     4
 74
     0
 42
0.0000000001
 43
0.0000000001
 40
0.0
 40
0.0
 40
0.0
 40
0.0
 40
1.0
 40
1.0
 40
1.0
 40
1.0
 10
271.6568033175025
 20
-393.4812363382617
 30
0.0
 10
271.6568033175025
 20
-394.2605169370252
 30
0.0
 10
272.2886338294973
 20
-394.89234744902
 30
0.0
 10
273.0679144282608
 20
-394.89234744902
 30
0.0
  0
ENDBLK
  5
6B
330
68
100
AcDbEntity
  8
0
100
AcDbBlockEnd
  0
BLOCK
  5
7E
330
7C
100
AcDbEntity
  8
0
100
AcDbBlockBegin
  2
block 12
 70
     0
 71
     0
 10
0.0
 20
0.0
 30
0.0
  3
block 12
  1

  0
SPLINE
  5
80
330
7C
100
AcDbEntity
  8
3 encoder top
 62
     1
370
     9
100
AcDbSpline
210
0.0
220
0.0
230
1.0
 70
    11
 71
     3
 72
    20
 73
    16
 74
     0
 42
0.0000000001
 43
0.0000000001
 40
0.0
 40
0.0
 40
0.0
 40
0.0
 40
1.0
 40
1.0
 40
1.0
 40
2.0
 40
2.0
 40
2.0
 40
3.0
 40
3.0
 40
3.0
 40
4.0
 40
4.0
 40
4.0
 40
5.0
 40
5.0
 40
5.0
 40
5.0
 10
164.4176987978713
 20
-220.1074950621606
 30
0.0
 10
164.4176987978713
 20
-219.278949597958
 30
0.0
 10
163.7464219425704
 20
-218.6075004878828
 30
0.0
 10
162.9177042235935
 20
-218.6075004878828
 30
0.0
 10
162.0893310141652
 20
-218.6075004878828
 30
0.0
 10
161.4177096493157
 20
-219.278949597958
 30
0.0
 10
161.4177096493157
 20
-220.1074950621606
 30
0.0
 10
161.4177096493157
 20
-220.9360405263632
 30
0.0
 10
162.0893310141652
 20
-221.6074896364384
 30
0.0
 10
162.9177042235935
 20
-221.6074896364384
 30
0.0
 10
163.7464219425704
 20
-221.6074896364384
 30
0.0
 10
164.4176987978713
 20
-220.9360405263632
 30
0.0
 10
164.4176987978713
 20
-220.1074950621606
 30
0.0
 10
164.4176987978713
 20
-220.1074950621606
 30
0.0
 10
164.4176987978713
 20
-220.1074950621606
 30
0.0
 10
164.4176987978713
 20
-220.1074950621606
 30
0.0
  0
ENDBLK
  5
7F
330
7C
100
AcDbEntity
  8
0
100
AcDbBlockEnd
  0
BLOCK
  5
83
330
81
100
AcDbEntity
  8
0
100
AcDbBlockBegin
  2
block 13
 70
     0
 71
     0
 10
0.0
 20
0.0
 30
0.0
  3
block 13
  1

  0
SPLINE
  5
85
330
81
100
AcDbEntity
  8
3 encoder top
 62
     1
370
     9
100
AcDbSpline
210
0.0
220
0.0
230
1.0
 70
    11
 71
     3
 72
    20
 73
    16
 74
     0
 42
0.0000000001
 43
0.0000000001
 40
0.0
 40
0.0
 40
0.0
 40
0.0
 40
1.0
 40
1.0
 40
1.0
 40
2.0
 40
2.0
 40
2.0
 40
3.0
 40
3.0
 40
3.0
 40
4.0
 40
4.0
 40
4.0
 40
5.0
 40
5.0
 40
5.0
 40
5.0
 10
164.451632988401
 20
-298.3690401814841
 30
0.0
 10
164.451632988401
 20
-297.5410114816044
 30
0.0
 10
163.779667114003
 20
-296.8690456072064
 30
0.0
 10
162.9516384141232
 20
-296.8690456072064
 30
0.0
 10
162.1236097142434
 20
-296.8690456072064
 30
0.0
 10
161.4516438398454
 20
-297.5410114816044
 30
0.0
 10
161.4516438398454
 20
-298.3690401814841
 30
0.0
 10
161.4516438398454
 20
-299.1974133909125
 30
0.0
 10
162.1236097142434
 20
-299.8690347557619
 30
0.0
 10
162.9516384141232
 20
-299.8690347557619
 30
0.0
 10
163.779667114003
 20
-299.8690347557619
 30
0.0
 10
164.451632988401
 20
-299.1974133909125
 30
0.0
 10
164.451632988401
 20
-298.3690401814841
 30
0.0
 10
164.451632988401
 20
-298.3690401814841
 30
0.0
 10
164.451632988401
 20
-298.3690401814841
 30
0.0
 10
164.451632988401
 20
-298.3690401814841
 30
0.0
  0
ENDBLK
  5
84
330
81
100
AcDbEntity
  8
0
100
AcDbBlockEnd
  0
BLOCK
  5
88
330
86
100
AcDbEntity
  8
0
100
AcDbBlockBegin
  2
block 14
 70
     0
 71
     0
 10
0.0
 20
0.0
 30
0.0
  3
block 14
  1

  0
SPLINE
  5
8A
330
86
100
AcDbEntity
  8
3 encoder top
 62
     1
370
     9
100
AcDbSpline
210
0.0
220
0.0
230
1.0
 70
    11
 71
     3
 72
    20
 73
    16
 74
     0
 42
0.0000000001
 43
0.0000000001
 40
0.0
 40
0.0
 40
0.0
 40
0.0
 40
1.0
 40
1.0
 40
1.0
 40
2.0
 40
2.0
 40
2.0
 40
3.0
 40
3.0
 40
3.0
 40
4.0
 40
4.0
 40
4.0
 40
5.0
 40
5.0
 40
5.0
 40
5.0
 10
290.5069877745955
 20
-240.3736137636913
 30
0.0
 10
290.5069877745955
 20
-239.5448960447145
 30
0.0
 10
289.8348496454232
 20
-238.8731024250908
 30
0.0
 10
289.0066486907692
 20
-238.8731024250908
 30
0.0
 10
288.1784477361151
 20
-238.8731024250908
 30
0.0
 10
287.5069986260399
 20
-239.5448960447145
 30
0.0
 10
287.5069986260399
 20
-240.3736137636913
 30
0.0
 10
287.5069986260399
 20
-241.2021592278939
 30
0.0
 10
288.1784477361151
 20
-241.8737805927434
 30
0.0
 10
289.0066486907692
 20
-241.8737805927434
 30
0.0
 10
289.8348496454232
 20
-241.8737805927434
 30
0.0
 10
290.5069877745955
 20
-241.2021592278939
 30
0.0
 10
290.5069877745955
 20
-240.3736137636913
 30
0.0
 10
290.5069877745955
 20
-240.3736137636913
 30
0.0
 10
290.5069877745955
 20
-240.3736137636913
 30
0.0
 10
290.5069877745955
 20
-240.3736137636913
 30
0.0
  0
ENDBLK
  5
89
330
86
100
AcDbEntity
  8
0
100
AcDbBlockEnd
  0
BLOCK
  5
8D
330
8B
100
AcDbEntity
  8
0
100
AcDbBlockBegin
  2
block 15
 70
     0
 71
     0
 10
0.0
 20
0.0
 30
0.0
  3
block 15
  1

  0
SPLINE
  5
8F
330
8B
100
AcDbEntity
  8
3 encoder top
 62
     1
370
     9
100
AcDbSpline
210
0.0
220
0.0
230
1.0
 70
    11
 71
     3
 72
    20
 73
    16
 74
     0
 42
0.0000000001
 43
0.0000000001
 40
0.0
 40
0.0
 40
0.0
 40
0.0
 40
1.0
 40
1.0
 40
1.0
 40
2.0
 40
2.0
 40
2.0
 40
3.0
 40
3.0
 40
3.0
 40
4.0
 40
4.0
 40
4.0
 40
5.0
 40
5.0
 40
5.0
 40
5.0
 10
290.507332284144
 20
-298.3664563598702
 30
0.0
 10
290.507332284144
 20
-297.5375663861191
 30
0.0
 10
289.8355386645203
 20
-296.8664617855924
 30
0.0
 10
289.0073377098662
 20
-296.8664617855924
 30
0.0
 10
288.1787922456637
 20
-296.8664617855924
 30
0.0
 10
287.5073431355884
 20
-297.5375663861191
 30
0.0
 10
287.5073431355884
 20
-298.3664563598702
 30
0.0
 10
287.5073431355884
 20
-299.1948295692985
 30
0.0
 10
288.1787922456637
 20
-299.866450934148
 30
0.0
 10
289.0073377098662
 20
-299.866450934148
 30
0.0
 10
289.8355386645203
 20
-299.866450934148
 30
0.0
 10
290.507332284144
 20
-299.1948295692985
 30
0.0
 10
290.507332284144
 20
-298.3664563598702
 30
0.0
 10
290.507332284144
 20
-298.3664563598702
 30
0.0
 10
290.507332284144
 20
-298.3664563598702
 30
0.0
 10
290.507332284144
 20
-298.3664563598702
 30
0.0
  0
ENDBLK
  5
8E
330
8B
100
AcDbEntity
  8
0
100
AcDbBlockEnd
  0
BLOCK
  5
92
330
90
100
AcDbEntity
  8
0
100
AcDbBlockBegin
  2
block 16
 70
     0
 71
     0
 10
0.0
 20
0.0
 30
0.0
  3
block 16
  1

  0
SPLINE
  5
94
330
90
100
AcDbEntity
  8
3 encoder top
 62
     1
370
     9
100
AcDbSpline
210
0.0
220
0.0
230
1.0
 70
    11
 71
     3
 72
    20
 73
    16
 74
     0
 42
0.0000000001
 43
0.0000000001
 40
0.0
 40
0.0
 40
0.0
 40
0.0
 40
1.0
 40
1.0
 40
1.0
 40
2.0
 40
2.0
 40
2.0
 40
3.0
 40
3.0
 40
3.0
 40
4.0
 40
4.0
 40
4.0
 40
5.0
 40
5.0
 40
5.0
 40
5.0
 10
164.3195135765417
 20
-255.9619818153498
 30
0.0
 10
164.3195135765417
 20
-255.13395311547
 30
0.0
 10
163.6475477021437
 20
-254.461987241072
 30
0.0
 10
162.8195190022639
 20
-254.461987241072
 30
0.0
 10
161.9914903023841
 20
-254.461987241072
 30
0.0
 10
161.3195244279861
 20
-255.13395311547
 30
0.0
 10
161.3195244279861
 20
-255.9619818153498
 30
0.0
 10
161.3195244279861
 20
-256.7903550247781
 30
0.0
 10
161.9914903023841
 20
-257.4619763896276
 30
0.0
 10
162.8195190022639
 20
-257.4619763896276
 30
0.0
 10
163.6475477021437
 20
-257.4619763896276
 30
0.0
 10
164.3195135765417
 20
-256.7903550247781
 30
0.0
 10
164.3195135765417
 20
-255.9619818153498
 30
0.0
 10
164.3195135765417
 20
-255.9619818153498
 30
0.0
 10
164.3195135765417
 20
-255.9619818153498
 30
0.0
 10
164.3195135765417
 20
-255.9619818153498
 30
0.0
  0
ENDBLK
  5
93
330
90
100
AcDbEntity
  8
0
100
AcDbBlockEnd
  0
BLOCK
  5
97
330
95
100
AcDbEntity
  8
0
100
AcDbBlockBegin
  2
block 17
 70
     0
 71
     0
 10
0.0
 20
0.0
 30
0.0
  3
block 17
  1

  0
SPLINE
  5
99
330
95
100
AcDbEntity
  8
3 encoder top
 62
     1
370
     9
100
AcDbSpline
210
0.0
220
0.0
230
1.0
 70
    11
 71
     3
 72
    20
 73
    16
 74
     0
 42
0.0000000001
 43
0.0000000001
 40
0.0
 40
0.0
 40
0.0
 40
0.0
 40
1.0
 40
1.0
 40
1.0
 40
2.0
 40
2.0
 40
2.0
 40
3.0
 40
3.0
 40
3.0
 40
4.0
 40
4.0
 40
4.0
 40
5.0
 40
5.0
 40
5.0
 40
5.0
 10
241.533577413575
 20
-298.3690401814841
 30
0.0
 10
241.533577413575
 20
-297.5410114816044
 30
0.0
 10
240.8614392844027
 20
-296.8690456072064
 30
0.0
 10
240.0335828392972
 20
-296.8690456072064
 30
0.0
 10
239.2057263941916
 20
-296.8690456072064
 30
0.0
 10
238.5335882650194
 20
-297.5410114816044
 30
0.0
 10
238.5335882650194
 20
-298.3690401814841
 30
0.0
 10
238.5335882650194
 20
-299.1974133909125
 30
0.0
 10
239.2057263941916
 20
-299.8690347557619
 30
0.0
 10
240.0335828392972
 20
-299.8690347557619
 30
0.0
 10
240.8614392844027
 20
-299.8690347557619
 30
0.0
 10
241.533577413575
 20
-299.1974133909125
 30
0.0
 10
241.533577413575
 20
-298.3690401814841
 30
0.0
 10
241.533577413575
 20
-298.3690401814841
 30
0.0
 10
241.533577413575
 20
-298.3690401814841
 30
0.0
 10
241.533577413575
 20
-298.3690401814841
 30
0.0
  0
ENDBLK
  5
98
330
95
100
AcDbEntity
  8
0
100
AcDbBlockEnd
  0
BLOCK
  5
9F
330
9D
100
AcDbEntity
  8
0
100
AcDbBlockBegin
  2
block 18
 70
     0
 71
     0
 10
0.0
 20
0.0
 30
0.0
  3
block 18
  1

  0
SPLINE
  5
A1
330
9D
100
AcDbEntity
  8
3 encoder top
 62
     1
370
     9
100
AcDbSpline
210
0.0
220
0.0
230
1.0
 70
    11
 71
     3
 72
    20
 73
    16
 74
     0
 42
0.0000000001
 43
0.0000000001
 40
0.0
 40
0.0
 40
0.0
 40
0.0
 40
1.0
 40
1.0
 40
1.0
 40
2.0
 40
2.0
 40
2.0
 40
3.0
 40
3.0
 40
3.0
 40
4.0
 40
4.0
 40
4.0
 40
5.0
 40
5.0
 40
5.0
 40
5.0
 10
236.3917724018396
 20
-220.0523735343967
 30
0.0
 10
236.3917724018396
 20
-219.2238280701941
 30
0.0
 10
235.7206678013129
 20
-218.5523789601189
 30
0.0
 10
234.8917778275618
 20
-218.5523789601189
 30
0.0
 10
234.0635768729077
 20
-218.5523789601189
 30
0.0
 10
233.391783253284
 20
-219.2238280701941
 30
0.0
 10
233.391783253284
 20
-220.0523735343967
 30
0.0
 10
233.391783253284
 20
-220.8809189985992
 30
0.0
 10
234.0635768729077
 20
-221.5523681086744
 30
0.0
 10
234.8917778275618
 20
-221.5523681086744
 30
0.0
 10
235.7206678013129
 20
-221.5523681086744
 30
0.0
 10
236.3917724018396
 20
-220.8809189985992
 30
0.0
 10
236.3917724018396
 20
-220.0523735343967
 30
0.0
 10
236.3917724018396
 20
-220.0523735343967
 30
0.0
 10
236.3917724018396
 20
-220.0523735343967
 30
0.0
 10
236.3917724018396
 20
-220.0523735343967
 30
0.0
  0
ENDBLK
  5
A0
330
9D
100
AcDbEntity
  8
0
100
AcDbBlockEnd
  0
ENDSEC
  0
SECTION
  2
ENTITIES
  0
INSERT
  5
3D
330
1F
100
AcDbEntity
  8
bottom
100
AcDbBlockReference
  2
block 2
 10
0.0
 20
0.0
 30
0.0
  0
SPLINE
  5
71
330
1F
100
AcDbEntity
  8
3 encoder top
 62
     1
370
     9
100
AcDbSpline
210
0.0
220
0.0
230
1.0
 70
    11
 71
     3
 72
    29
 73
    25
 74
     0
 42
0.0000000001
 43
0.0000000001
 40
0.0
 40
0.0
 40
0.0
 40
0.0
 40
1.0
 40
1.0
 40
1.0
 40
2.0
 40
2.0
 40
2.0
 40
3.0
 40
3.0
 40
3.0
 40
4.0
 40
4.0
 40
4.0
 40
5.0
 40
5.0
 40
5.0
 40
6.0
 40
6.0
 40
6.0
 40
7.0
 40
7.0
 40
7.0
 40
8.0
 40
8.0
 40
8.0
 40
8.0
 10
295.2481281813963
 20
-302.6879841365676
 30
0.0
 10
295.2481281813963
 20
-303.4758774740442
 30
0.0
 10
294.6135415930133
 20
-304.1145981770096
 30
0.0
 10
293.830471389216
 20
-304.1145981770096
 30
0.0
 10
293.830471389216
 20
-304.1145981770096
 30
0.0
 10
158.6659396304724
 20
-304.1145981770096
 30
0.0
 10
158.6659396304724
 20
-304.1145981770096
 30
0.0
 10
157.8830416814494
 20
-304.1145981770096
 30
0.0
 10
157.2482828382921
 20
-303.4758774740442
 30
0.0
 10
157.2482828382921
 20
-302.6879841365676
 30
0.0
 10
157.2482828382921
 20
-302.6879841365676
 30
0.0
 10
157.2482828382921
 20
-215.5411932512363
 30
0.0
 10
157.2482828382921
 20
-215.5411932512363
 30
0.0
 10
157.2482828382921
 20
-214.7532999137596
 30
0.0
 10
157.8830416814494
 20
-214.1145792107943
 30
0.0
 10
158.6659396304724
 20
-214.1145792107943
 30
0.0
 10
158.6659396304724
 20
-214.1145792107943
 30
0.0
 10
293.830471389216
 20
-214.1145792107943
 30
0.0
 10
293.830471389216
 20
-214.1145792107943
 30
0.0
 10
294.6135415930133
 20
-214.1145792107943
 30
0.0
 10
295.2481281813963
 20
-214.7532999137596
 30
0.0
 10
295.2481281813963
 20
-215.5411932512363
 30
0.0
 10
295.2481281813963
 20
-215.5411932512363
 30
0.0
 10
295.2481281813963
 20
-302.6879841365676
 30
0.0
 10
295.2481281813963
 20
-302.6879841365676
 30
0.0
  0
SPLINE
  5
72
330
1F
100
AcDbEntity
  8
3 encoder top
 62
     1
370
     9
100
AcDbSpline
210
0.0
220
0.0
230
1.0
 70
    11
 71
     3
 72
    17
 73
    13
 74
     0
 42
0.0000000001
 43
0.0000000001
 40
0.0
 40
0.0
 40
0.0
 40
0.0
 40
1.0
 40
1.0
 40
1.0
 40
2.0
 40
2.0
 40
2.0
 40
3.0
 40
3.0
 40
3.0
 40
4.0
 40
4.0
 40
4.0
 40
4.0
 10
173.0161403647321
 20
-244.0781249389805
 30
0.0
 10
173.0161403647321
 20
-247.253986212058
 30
0.0
 10
170.4419650181534
 20
-249.8281615586367
 30
0.0
 10
167.2661037450758
 20
-249.8281615586367
 30
0.0
 10
164.0902424719983
 20
-249.8281615586367
 30
0.0
 10
161.5160671254196
 20
-247.253986212058
 30
0.0
 10
161.5160671254196
 20
-244.0781249389805
 30
0.0
 10
161.5160671254196
 20
-240.9022636659029
 30
0.0
 10
164.0902424719983
 20
-238.32791606455
 30
0.0
 10
167.2661037450758
 20
-238.32791606455
 30
0.0
 10
170.4419650181534
 20
-238.32791606455
 30
0.0
 10
173.0161403647321
 20
-240.9022636659029
 30
0.0
 10
173.0161403647321
 20
-244.0781249389805
 30
0.0
  0
SPLINE
  5
73
330
1F
100
AcDbEntity
  8
3 encoder top
 62
     1
370
     9
100
AcDbSpline
210
0.0
220
0.0
230
1.0
 70
    11
 71
     3
 72
    17
 73
    13
 74
     0
 42
0.0000000001
 43
0.0000000001
 40
0.0
 40
0.0
 40
0.0
 40
0.0
 40
1.0
 40
1.0
 40
1.0
 40
2.0
 40
2.0
 40
2.0
 40
3.0
 40
3.0
 40
3.0
 40
4.0
 40
4.0
 40
4.0
 40
4.0
 10
258.7411403433009
 20
-290.7770832606391
 30
0.0
 10
258.7411403433009
 20
-293.9527722789423
 30
0.0
 10
256.1673095062707
 20
-296.5272921350696
 30
0.0
 10
252.9912759784189
 20
-296.5272921350696
 30
0.0
 10
249.8155869601156
 20
-296.5272921350696
 30
0.0
 10
247.2410671039883
 20
-293.9527722789423
 30
0.0
 10
247.2410671039883
 20
-290.7770832606391
 30
0.0
 10
247.2410671039883
 20
-287.6013942423358
 30
0.0
 10
249.8155869601156
 20
-285.0270466409829
 30
0.0
 10
252.9912759784189
 20
-285.0270466409829
 30
0.0
 10
256.1673095062707
 20
-285.0270466409829
 30
0.0
 10
258.7411403433009
 20
-287.6013942423358
 30
0.0
 10
258.7411403433009
 20
-290.7770832606391
 30
0.0
  0
SPLINE
  5
74
330
1F
100
AcDbEntity
  8
3 encoder top
 62
     1
370
     9
100
AcDbSpline
210
0.0
220
0.0
230
1.0
 70
    11
 71
     3
 72
    17
 73
    13
 74
     0
 42
0.0000000001
 43
0.0000000001
 40
0.0
 40
0.0
 40
0.0
 40
0.0
 40
1.0
 40
1.0
 40
1.0
 40
2.0
 40
2.0
 40
2.0
 40
3.0
 40
3.0
 40
3.0
 40
4.0
 40
4.0
 40
4.0
 40
4.0
 10
282.6418347817701
 20
-290.7770832606391
 30
0.0
 10
282.6418347817701
 20
-293.9527722789423
 30
0.0
 10
280.0676594351914
 20
-296.5272921350696
 30
0.0
 10
276.8919704168881
 20
-296.5272921350696
 30
0.0
 10
273.7162813985848
 20
-296.5272921350696
 30
0.0
 10
271.1417615424576
 20
-293.9527722789423
 30
0.0
 10
271.1417615424576
 20
-290.7770832606391
 30
0.0
 10
271.1417615424576
 20
-287.6013942423358
 30
0.0
 10
273.7162813985848
 20
-285.0270466409829
 30
0.0
 10
276.8919704168881
 20
-285.0270466409829
 30
0.0
 10
280.0676594351914
 20
-285.0270466409829
 30
0.0
 10
282.6418347817701
 20
-287.6013942423358
 30
0.0
 10
282.6418347817701
 20
-290.7770832606391
 30
0.0
  0
POLYLINE
  5
75
330
1F
100
AcDbEntity
  8
3 encoder top
 62
     1
370
     9
100
AcDb2dPolyline
 66
     1
 10
0.0
 20
0.0
 30
0.0
  0
VERTEX
  5
76
330
75
100
AcDbEntity
  8
3 encoder top
 62
     1
370
     9
100
AcDbVertex
100
AcDb2dVertex
 10
234.4938692990154
 20
-294.0407944685905
 30
0.0
  0
VERTEX
  5
77
330
75
100
AcDbEntity
  8
3 encoder top
 62
     1
370
     9
100
AcDbVertex
100
AcDb2dVertex
 10
168.171819348148
 20
-294.0407944685905
 30
0.0
  0
VERTEX
  5
78
330
75
100
AcDbEntity
  8
3 encoder top
 62
     1
370
     9
100
AcDbVertex
100
AcDb2dVertex
 10
168.171819348148
 20
-261.0560722546145
 30
0.0
  0
VERTEX
  5
79
330
75
100
AcDbEntity
  8
3 encoder top
 62
     1
370
     9
100
AcDbVertex
100
AcDb2dVertex
 10
234.4938692990154
 20
-261.0560722546145
 30
0.0
  0
VERTEX
  5
7A
330
75
100
AcDbEntity
  8
3 encoder top
 62
     1
370
     9
100
AcDbVertex
100
AcDb2dVertex
 10
234.4938692990154
 20
-294.0407944685905
 30
0.0
  0
SEQEND
  5
7B
330
75
100
AcDbEntity
  8
3 encoder top
370
     9
  0
INSERT
  5
7D
330
1F
100
AcDbEntity
  8
3 encoder top
100
AcDbBlockReference
  2
block 12
 10
0.0
 20
0.0
 30
0.0
  0
INSERT
  5
82
330
1F
100
AcDbEntity
  8
3 encoder top
100
AcDbBlockReference
  2
block 13
 10
0.0
 20
0.0
 30
0.0
  0
INSERT
  5
87
330
1F
100
AcDbEntity
  8
3 encoder top
100
AcDbBlockReference
  2
block 14
 10
0.0
 20
0.0
 30
0.0
  0
INSERT
  5
8C
330
1F
100
AcDbEntity
  8
3 encoder top
100
AcDbBlockReference
  2
block 15
 10
0.0
 20
0.0
 30
0.0
  0
INSERT
  5
91
330
1F
100
AcDbEntity
  8
3 encoder top
100
AcDbBlockReference
  2
block 16
 10
0.0
 20
0.0
 30
0.0
  0
INSERT
  5
96
330
1F
100
AcDbEntity
  8
3 encoder top
100
AcDbBlockReference
  2
block 17
 10
0.0
 20
0.0
 30
0.0
  0
SPLINE
  5
9A
330
1F
100
AcDbEntity
  8
3 encoder top
 62
     1
370
     9
100
AcDbSpline
210
0.0
220
0.0
230
1.0
 70
    11
 71
     3
 72
    17
 73
    13
 74
     0
 42
0.0000000001
 43
0.0000000001
 40
0.0
 40
0.0
 40
0.0
 40
0.0
 40
1.0
 40
1.0
 40
1.0
 40
2.0
 40
2.0
 40
2.0
 40
3.0
 40
3.0
 40
3.0
 40
4.0
 40
4.0
 40
4.0
 40
4.0
 10
263.5701306849755
 20
-273.5200832106999
 30
0.0
 10
263.5701306849755
 20
-275.8355318863362
 30
0.0
 10
261.6932426646114
 20
-277.7127644162489
 30
0.0
 10
259.377793988975
 20
-277.7127644162489
 30
0.0
 10
257.0623453133386
 20
-277.7127644162489
 30
0.0
 10
255.185112783426
 20
-275.8355318863362
 30
0.0
 10
255.185112783426
 20
-273.5200832106999
 30
0.0
 10
255.185112783426
 20
-271.2046345350635
 30
0.0
 10
257.0623453133386
 20
-269.3274020051508
 30
0.0
 10
259.377793988975
 20
-269.3274020051508
 30
0.0
 10
261.6932426646114
 20
-269.3274020051508
 30
0.0
 10
263.5701306849755
 20
-271.2046345350635
 30
0.0
 10
263.5701306849755
 20
-273.5200832106999
 30
0.0
  0
SPLINE
  5
9B
330
1F
100
AcDbEntity
  8
3 encoder top
 62
     1
370
     9
100
AcDbSpline
210
0.0
220
0.0
230
1.0
 70
    11
 71
     3
 72
    17
 73
    13
 74
     0
 42
0.0000000001
 43
0.0000000001
 40
0.0
 40
0.0
 40
0.0
 40
0.0
 40
1.0
 40
1.0
 40
1.0
 40
2.0
 40
2.0
 40
2.0
 40
3.0
 40
3.0
 40
3.0
 40
4.0
 40
4.0
 40
4.0
 40
4.0
 10
287.6692626233952
 20
-273.5200832106999
 30
0.0
 10
287.6692626233952
 20
-275.8355318863362
 30
0.0
 10
285.7923746030311
 20
-277.7127644162489
 30
0.0
 10
283.4769259273947
 20
-277.7127644162489
 30
0.0
 10
281.1614772517582
 20
-277.7127644162489
 30
0.0
 10
279.2842447218456
 20
-275.8355318863362
 30
0.0
 10
279.2842447218456
 20
-273.5200832106999
 30
0.0
 10
279.2842447218456
 20
-271.2046345350635
 30
0.0
 10
281.1614772517582
 20
-269.3274020051508
 30
0.0
 10
283.4769259273947
 20
-269.3274020051508
 30
0.0
 10
285.7923746030311
 20
-269.3274020051508
 30
0.0
 10
287.6692626233952
 20
-271.2046345350635
 30
0.0
 10
287.6692626233952
 20
-273.5200832106999
 30
0.0
  0
SPLINE
  5
9C
330
1F
100
AcDbEntity
  8
3 encoder top
 62
     1
370
     9
100
AcDbSpline
210
0.0
220
0.0
230
1.0
 70
    11
 71
     3
 72
    17
 73
    13
 74
     0
 42
0.0000000001
 43
0.0000000001
 40
0.0
 40
0.0
 40
0.0
 40
0.0
 40
1.0
 40
1.0
 40
1.0
 40
2.0
 40
2.0
 40
2.0
 40
3.0
 40
3.0
 40
3.0
 40
4.0
 40
4.0
 40
4.0
 40
4.0
 10
189.4058376262597
 20
-243.9749443291973
 30
0.0
 10
189.4058376262597
 20
-246.2903930048337
 30
0.0
 10
187.5289496058955
 20
-248.1676255347463
 30
0.0
 10
185.2135009302591
 20
-248.1676255347463
 30
0.0
 10
182.8980522546227
 20
-248.1676255347463
 30
0.0
 10
181.0208197247101
 20
-246.2903930048337
 30
0.0
 10
181.0208197247101
 20
-243.9749443291973
 30
0.0
 10
181.0208197247101
 20
-241.6594956535608
 30
0.0
 10
182.8980522546227
 20
-239.7822631236482
 30
0.0
 10
185.2135009302591
 20
-239.7822631236482
 30
0.0
 10
187.5289496058955
 20
-239.7822631236482
 30
0.0
 10
189.4058376262597
 20
-241.6594956535608
 30
0.0
 10
189.4058376262597
 20
-243.9749443291973
 30
0.0
  0
INSERT
  5
9E
330
1F
100
AcDbEntity
  8
3 encoder top
100
AcDbBlockReference
  2
block 18
 10
0.0
 20
0.0
 30
0.0
  0
ENDSEC
  0
SECTION
  2
OBJECTS
  0
DICTIONARY
  5
C
330
0
100
AcDbDictionary
281
     1
  3
ACAD_GROUP
350
D
  3
ACAD_LAYOUT
350
1A
  3
ACAD_MLINESTYLE
350
17
  3
ACAD_PLOTSETTINGS
350
19
  3
ACAD_PLOTSTYLENAME
350
E
  3
ACAD_TABLESTYLE
350
A2
  3
ACAD_VISUALSTYLE
350
2A
  0
DICTIONARY
  5
D
102
{ACAD_REACTORS
330
C
102
}
330
C
100
AcDbDictionary
281
     1
  0
DICTIONARY
  5
1A
102
{ACAD_REACTORS
330
C
102
}
330
C
100
AcDbDictionary
281
     1
  3
Layout1
350
1E
  3
Layout2
350
26
  3
Model
350
22
  0
DICTIONARY
  5
17
102
{ACAD_REACTORS
330
C
102
}
330
C
100
AcDbDictionary
281
     1
  3
Standard
350
18
  0
DICTIONARY
  5
19
102
{ACAD_REACTORS
330
C
102
}
330
C
100
AcDbDictionary
281
     1
  0
ACDBDICTIONARYWDFLT
  5
E
102
{ACAD_REACTORS
330
C
102
}
330
C
100
AcDbDictionary
281
     1
  3
Normal
350
F
100
AcDbDictionaryWithDefault
340
F
  0
DICTIONARY
  5
A2
102
{ACAD_REACTORS
330
C
102
}
330
C
100
AcDbDictionary
281
     1
  0
DICTIONARY
  5
2A
102
{ACAD_REACTORS
330
C
102
}
330
C
100
AcDbDictionary
281
     1
  3
2dWireframe
350
2F
  3
3D Hidden
350
31
  3
3dWireframe
350
30
  3
Basic
350
32
  3
Brighten
350
36
  3
ColorChange
350
3A
  3
Conceptual
350
34
  3
Dim
350
35
  3
Facepattern
350
39
  3
Flat
350
2B
  3
FlatWithEdges
350
2C
  3
Gouraud
350
2D
  3
GouraudWithEdges
350
2E
  3
Linepattern
350
38
  3
Realistic
350
33
  3
Thicken
350
37
  0
LAYOUT
  5
1E
102
{ACAD_REACTORS
330
1A
102
}
330
1A
100
AcDbPlotSettings
  1

  2
none_device
  4

  6

 40
0.0
 41
0.0
 42
0.0
 43
0.0
 44
0.0
 45
0.0
 46
0.0
 47
0.0
 48
0.0
 49
0.0
140
0.0
141
0.0
142
1.0
143
1.0
 70
   688
 72
     0
 73
     0
 74
     5
  7

 75
    16
 76
     0
 77
     2
 78
   300
147
1.0
148
0.0
149
0.0
100
AcDbLayout
  1
Layout1
 70
     1
 71
     1
 10
0.0
 20
0.0
 11
12.0
 21
9.0
 12
0.0
 22
0.0
 32
0.0
 14
1.000000000000000E+20
 24
1.000000000000000E+20
 34
1.000000000000000E+20
 15
-1.000000000000000E+20
 25
-1.000000000000000E+20
 35
-1.000000000000000E+20
146
0.0
 13
0.0
 23
0.0
 33
0.0
 16
1.0
 26
0.0
 36
0.0
 17
0.0
 27
1.0
 37
0.0
 76
     0
330
1B
  0
LAYOUT
  5
26
102
{ACAD_REACTORS
330
1A
102
}
330
1A
100
AcDbPlotSettings
  1

  2
none_device
  4

  6

 40
0.0
 41
0.0
 42
0.0
 43
0.0
 44
0.0
 45
0.0
 46
0.0
 47
0.0
 48
0.0
 49
0.0
140
0.0
141
0.0
142
1.0
143
1.0
 70
   688
 72
     0
 73
     0
 74
     5
  7

 75
    16
 76
     0
 77
     2
 78
   300
147
1.0
148
0.0
149
0.0
100
AcDbLayout
  1
Layout2
 70
     1
 71
     2
 10
0.0
 20
0.0
 11
0.0
 21
0.0
 12
0.0
 22
0.0
 32
0.0
 14
0.0
 24
0.0
 34
0.0
 15
0.0
 25
0.0
 35
0.0
146
0.0
 13
0.0
 23
0.0
 33
0.0
 16
1.0
 26
0.0
 36
0.0
 17
0.0
 27
1.0
 37
0.0
 76
     0
330
23
  0
LAYOUT
  5
22
102
{ACAD_REACTORS
330
1A
102
}
330
1A
100
AcDbPlotSettings
  1

  2
none_device
  4

  6

 40
0.0
 41
0.0
 42
0.0
 43
0.0
 44
0.0
 45
0.0
 46
0.0
 47
0.0
 48
0.0
 49
0.0
140
0.0
141
0.0
142
1.0
143
1.0
 70
  1712
 72
     0
 73
     0
 74
     0
  7

 75
     0
 76
     0
 77
     2
 78
   300
147
1.0
148
0.0
149
0.0
100
AcDbLayout
  1
Model
 70
     1
 71
     0
 10
0.0
 20
0.0
 11
12.0
 21
9.0
 12
0.0
 22
0.0
 32
0.0
 14
1.000000000000000E+20
 24
1.000000000000000E+20
 34
1.000000000000000E+20
 15
-1.000000000000000E+20
 25
-1.000000000000000E+20
 35
-1.000000000000000E+20
146
0.0
 13
0.0
 23
0.0
 33
0.0
 16
1.0
 26
0.0
 36
0.0
 17
0.0
 27
1.0
 37
0.0
 76
     0
330
1F
331
29
  0
MLINESTYLE
  5
18
102
{ACAD_REACTORS
330
17
102
}
330
17
100
AcDbMlineStyle
  2
Standard
 70
     0
  3

 62
   256
 51
90.0
 52
90.0
 71
     2
 49
0.5
 62
   256
  6
BYLAYER
 49
-0.5
 62
   256
  6
BYLAYER
  0
ACDBPLACEHOLDER
  5
F
102
{ACAD_REACTORS
330
E
102
}
330
E
  0
VISUALSTYLE
  5
2F
102
{ACAD_REACTORS
330
2A
102
}
330
2A
100
AcDbVisualStyle
  2
2dWireframe
 70
     4
 71
     0
 72
     2
 73
     0
 90
        0
 40
-0.6
 41
-30.0
 62
     5
 63
     7
421
 16777215
 74
     1
 91
        4
 64
     7
 65
   257
 75
     1
175
     1
 42
1.0
 92
        0
 66
   257
 43
1.0
 76
     1
 77
     6
 78
     2
 67
     7
 79
     5
170
     0
171
     0
290
     0
174
     0
 93
        1
 44
0.0
173
     0
291
     0
 45
0.0
1001
ACAD
1000
AcDbSavedByObjectVersion
1070
     0
  0
VISUALSTYLE
  5
31
102
{ACAD_REACTORS
330
2A
102
}
330
2A
100
AcDbVisualStyle
  2
3D Hidden
 70
     6
 71
     1
 72
     2
 73
     2
 90
        0
 40
-0.6
 41
-30.0
 62
     5
 63
     7
421
 16777215
 74
     2
 91
        2
 64
     7
 65
   257
 75
     2
175
     1
 42
40.0
 92
        0
 66
   257
 43
1.0
 76
     1
 77
     6
 78
     2
 67
     7
 79
     3
170
     0
171
     0
290
     0
174
     0
 93
        1
 44
0.0
173
     0
291
     0
 45
0.0
1001
ACAD
1000
AcDbSavedByObjectVersion
1070
     0
  0
VISUALSTYLE
  5
30
102
{ACAD_REACTORS
330
2A
102
}
330
2A
100
AcDbVisualStyle
  2
3dWireframe
 70
     5
 71
     0
 72
     2
 73
     0
 90
        0
 40
-0.6
 41
-30.0
 62
     5
 63
     7
421
 16777215
 74
     1
 91
        4
 64
     7
 65
   257
 75
     1
175
     1
 42
1.0
 92
        0
 66
   257
 43
1.0
 76
     1
 77
     6
 78
     2
 67
     7
 79
     5
170
     0
171
     0
290
     0
174
     0
 93
        1
 44
0.0
173
     0
291
     0
 45
0.0
1001
ACAD
1000
AcDbSavedByObjectVersion
1070
     0
  0
VISUALSTYLE
  5
32
102
{ACAD_REACTORS
330
2A
102
}
330
2A
100
AcDbVisualStyle
  2
Basic
 70
     7
 71
     1
 72
     0
 73
     1
 90
        0
 40
-0.6
 41
-30.0
 62
     5
 63
     7
421
 16777215
 74
     0
 91
        4
 64
     7
 65
   257
 75
     1
175
     1
 42
1.0
 92
        8
 66
     7
 43
1.0
 76
     1
 77
     6
 78
     2
 67
     7
 79
     5
170
     0
171
     0
290
     0
174
     0
 93
        1
 44
0.0
173
     0
291
     1
 45
0.0
1001
ACAD
1000
AcDbSavedByObjectVersion
1070
     0
  0
VISUALSTYLE
  5
36
102
{ACAD_REACTORS
330
2A
102
}
330
2A
100
AcDbVisualStyle
  2
Brighten
 70
    12
 71
     2
 72
     2
 73
     0
 90
        0
 40
-0.6
 41
-30.0
 62
     5
 63
     7
421
 16777215
 74
     1
 91
        4
 64
     7
 65
   257
 75
     1
175
     1
 42
1.0
 92
        8
 66
     7
 43
1.0
 76
     1
 77
     6
 78
     2
 67
     7
 79
     5
170
     0
171
     0
290
     0
174
     0
 93
        1
 44
50.0
173
     0
291
     1
 45
0.0
1001
ACAD
1000
AcDbSavedByObjectVersion
1070
     0
  0
VISUALSTYLE
  5
3A
102
{ACAD_REACTORS
330
2A
102
}
330
2A
100
AcDbVisualStyle
  2
ColorChange
 70
    16
 71
     2
 72
     2
 73
     3
 90
        0
 40
-0.6
 41
-30.0
 62
     5
 63
     8
421
  8421504
 74
     1
 91
        4
 64
     7
 65
   257
 75
     1
175
     1
 42
1.0
 92
        8
 66
     8
424
  8421504
 43
1.0
 76
     1
 77
     6
 78
     2
 67
     7
 79
     5
170
     0
171
     0
290
     0
174
     0
 93
        1
 44
0.0
173
     0
291
     1
 45
0.0
1001
ACAD
1000
AcDbSavedByObjectVersion
1070
     0
  0
VISUALSTYLE
  5
34
102
{ACAD_REACTORS
330
2A
102
}
330
2A
100
AcDbVisualStyle
  2
Conceptual
 70
     9
 71
     3
 72
     2
 73
     0
 90
        0
 40
-0.6
 41
-30.0
 62
     5
 63
     7
421
 16777215
 74
     2
 91
        2
 64
     7
 65
   257
 75
     1
175
     1
 42
40.0
 92
        8
 66
     7
 43
1.0
 76
     1
 77
     6
 78
     2
 67
     7
 79
     3
170
     0
171
     0
290
     0
174
     0
 93
        1
 44
0.0
173
     0
291
     0
 45
0.0
1001
ACAD
1000
AcDbSavedByObjectVersion
1070
     0
  0
VISUALSTYLE
  5
35
102
{ACAD_REACTORS
330
2A
102
}
330
2A
100
AcDbVisualStyle
  2
Dim
 70
    11
 71
     2
 72
     2
 73
     0
 90
        0
 40
-0.6
 41
-30.0
 62
     5
 63
     7
421
 16777215
 74
     1
 91
        4
 64
     7
 65
   257
 75
     1
175
     1
 42
1.0
 92
        8
 66
     7
 43
1.0
 76
     1
 77
     6
 78
     2
 67
     7
 79
     5
170
     0
171
     0
290
     0
174
     0
 93
        1
 44
-50.0
173
     0
291
     1
 45
0.0
1001
ACAD
1000
AcDbSavedByObjectVersion
1070
     0
  0
VISUALSTYLE
  5
39
102
{ACAD_REACTORS
330
2A
102
}
330
2A
100
AcDbVisualStyle
  2
Facepattern
 70
    15
 71
     2
 72
     2
 73
     0
 90
        0
 40
-0.6
 41
-30.0
 62
     5
 63
     7
421
 16777215
 74
     1
 91
        4
 64
     7
 65
   257
 75
     1
175
     1
 42
1.0
 92
        8
 66
     7
 43
1.0
 76
     1
 77
     6
 78
     2
 67
     7
 79
     5
170
     0
171
     0
290
     0
174
     0
 93
        1
 44
0.0
173
     0
291
     1
 45
0.0
1001
ACAD
1000
AcDbSavedByObjectVersion
1070
     0
  0
VISUALSTYLE
  5
2B
102
{ACAD_REACTORS
330
2A
102
}
330
2A
100
AcDbVisualStyle
  2
Flat
 70
     0
 71
     2
 72
     1
 73
     1
 90
        2
 40
-0.6
 41
30.0
 62
     5
 63
     7
421
 16777215
 74
     0
 91
        4
 64
     7
 65
   257
 75
     1
175
     1
 42
1.0
 92
        8
 66
     7
 43
1.0
 76
     1
 77
     6
 78
     2
 67
     7
 79
     5
170
     0
171
     0
290
     0
174
     0
 93
       13
 44
0.0
173
     0
291
     1
 45
0.0
1001
ACAD
1000
AcDbSavedByObjectVersion
1070
     0
  0
VISUALSTYLE
  5
2C
102
{ACAD_REACTORS
330
2A
102
}
330
2A
100
AcDbVisualStyle
  2
FlatWithEdges
 70
     1
 71
     2
 72
     1
 73
     1
 90
        2
 40
-0.6
 41
30.0
 62
     5
 63
     7
421
 16777215
 74
     1
 91
        4
 64
     7
 65
   257
 75
     1
175
     1
 42
1.0
 92
        0
 66
   257
 43
1.0
 76
     1
 77
     6
 78
     2
 67
     7
 79
     5
170
     0
171
     0
290
     0
174
     0
 93
       13
 44
0.0
173
     0
291
     1
 45
0.0
1001
ACAD
1000
AcDbSavedByObjectVersion
1070
     0
  0
VISUALSTYLE
  5
2D
102
{ACAD_REACTORS
330
2A
102
}
330
2A
100
AcDbVisualStyle
  2
Gouraud
 70
     2
 71
     2
 72
     2
 73
     1
 90
        2
 40
-0.6
 41
30.0
 62
     5
 63
     7
421
 16777215
 74
     0
 91
        4
 64
     7
 65
   257
 75
     1
175
     1
 42
1.0
 92
        0
 66
     7
 43
1.0
 76
     1
 77
     6
 78
     2
 67
     7
 79
     5
170
     0
171
     0
290
     0
174
     0
 93
       13
 44
0.0
173
     0
291
     1
 45
0.0
1001
ACAD
1000
AcDbSavedByObjectVersion
1070
     0
  0
VISUALSTYLE
  5
2E
102
{ACAD_REACTORS
330
2A
102
}
330
2A
100
AcDbVisualStyle
  2
GouraudWithEdges
 70
     3
 71
     2
 72
     2
 73
     1
 90
        2
 40
-0.6
 41
30.0
 62
     5
 63
     7
421
 16777215
 74
     1
 91
        4
 64
     7
 65
   257
 75
     1
175
     1
 42
1.0
 92
        0
 66
   257
 43
1.0
 76
     1
 77
     6
 78
     2
 67
     7
 79
     5
170
     0
171
     0
290
     0
174
     0
 93
       13
 44
0.0
173
     0
291
     1
 45
0.0
1001
ACAD
1000
AcDbSavedByObjectVersion
1070
     0
  0
VISUALSTYLE
  5
38
102
{ACAD_REACTORS
330
2A
102
}
330
2A
100
AcDbVisualStyle
  2
Linepattern
 70
    14
 71
     2
 72
     2
 73
     0
 90
        0
 40
-0.6
 41
-30.0
 62
     5
 63
     7
421
 16777215
 74
     1
 91
        4
 64
     7
 65
   257
 75
     7
175
     7
 42
1.0
 92
        8
 66
     7
 43
1.0
 76
     1
 77
     6
 78
     2
 67
     7
 79
     5
170
     0
171
     0
290
     0
174
     0
 93
        1
 44
0.0
173
     0
291
     1
 45
0.0
1001
ACAD
1000
AcDbSavedByObjectVersion
1070
     0
  0
VISUALSTYLE
  5
33
102
{ACAD_REACTORS
330
2A
102
}
330
2A
100
AcDbVisualStyle
  2
Realistic
 70
     8
 71
     2
 72
     2
 73
     0
 90
        0
 40
-0.6
 41
-30.0
 62
     5
 63
     7
421
 16777215
 74
     1
 91
        0
 64
     7
 65
   257
 75
     1
175
     1
 42
1.0
 92
        8
 66
     8
424
  7895160
 43
1.0
 76
     1
 77
     6
 78
     2
 67
     7
 79
     5
170
     0
171
     0
290
     0
174
     0
 93
       13
 44
0.0
173
     0
291
     0
 45
0.0
1001
ACAD
1000
AcDbSavedByObjectVersion
1070
     0
  0
VISUALSTYLE
  5
37
102
{ACAD_REACTORS
330
2A
102
}
330
2A
100
AcDbVisualStyle
  2
Thicken
 70
    13
 71
     2
 72
     2
 73
     0
 90
        0
 40
-0.6
 41
-30.0
 62
     5
 63
     7
421
 16777215
 74
     1
 91
        4
 64
     7
 65
   257
 75
     1
175
     1
 42
1.0
 92
       12
 66
     7
 43
1.0
 76
     1
 77
     6
 78
     2
 67
     7
 79
     5
170
     0
171
     0
290
     0
174
     0
 93
        1
 44
0.0
173
     0
291
     1
 45
0.0
1001
ACAD
1000
AcDbSavedByObjectVersion
1070
     0
  0
ENDSEC
  0
EOF
